<?xml version="1.0" encoding="UTF-8"?>
<!-- Created with Inkscape (http://www.inkscape.org/) -->
<svg version="1.1" viewBox="0 0 16 16" xmlns="http://www.w3.org/2000/svg" xmlns:cc="http://creativecommons.org/ns#" xmlns:dc="http://purl.org/dc/elements/1.1/" xmlns:rdf="http://www.w3.org/1999/02/22-rdf-syntax-ns#">
  <metadata>
    <rdf:RDF>
      <cc:Work rdf:about="">
        <dc:format>image/svg+xml</dc:format>
        <dc:type rdf:resource="http://purl.org/dc/dcmitype/StillImage"/>
        <dc:title>Gnome Symbolic Icon Theme</dc:title>
      </cc:Work>
    </rdf:RDF>
  </metadata>
  <title>Gnome Symbolic Icon Theme</title>
  <g transform="translate(-383 125)" fill="#bebebe">
    <path d="m391-125c-4.4064 0-8 3.5936-8 8s3.5936 8 8 8 8-3.5936 8-8-3.5936-8-8-8zm0 2c3.3256 0 6 2.6744 6 6s-2.6744 6-6 6-6-2.6744-6-6 2.6744-6 6-6z" color="#000000" style="block-progression:tb;text-indent:0;text-transform:none"/>
    <path transform="matrix(1.8835 0 0 1.8835 382.16 -126.1)" d="m2.0387 1.3786a0.79637 0.79637 0 1 1-1.5927 0 0.79637 0.79637 0 1 1 1.5927 0z" color="#000000"/>
    <path transform="matrix(1.8835 0 0 1.8835 395.16 -126.1)" d="m2.0387 1.3786a0.79637 0.79637 0 1 1-1.5927 0 0.79637 0.79637 0 1 1 1.5927 0z" color="#000000"/>
    <path transform="matrix(1.8835 0 0 1.8835 382.16 -113.1)" d="m2.0387 1.3786a0.79637 0.79637 0 1 1-1.5927 0 0.79637 0.79637 0 1 1 1.5927 0z" color="#000000"/>
    <path transform="matrix(1.8835 0 0 1.8835 395.16 -113.1)" d="m2.0387 1.3786a0.79637 0.79637 0 1 1-1.5927 0 0.79637 0.79637 0 1 1 1.5927 0z" color="#000000"/>
    <path transform="matrix(3.7671 0 0 3.7671 386.32 -122.19)" d="m2.0387 1.3786a0.79637 0.79637 0 1 1-1.5927 0 0.79637 0.79637 0 1 1 1.5927 0z" color="#000000"/>
  </g>
</svg>
