<?xml version="1.0" encoding="UTF-8"?>
<svg enable-background="new" version="1.0" viewBox="0 0 128 128" xmlns="http://www.w3.org/2000/svg" xmlns:cc="http://creativecommons.org/ns#" xmlns:dc="http://purl.org/dc/elements/1.1/" xmlns:rdf="http://www.w3.org/1999/02/22-rdf-syntax-ns#" xmlns:xlink="http://www.w3.org/1999/xlink">
  <title>Adwaita Icon Template</title>
  <defs>
    <radialGradient id="radialGradient1073" cx="280" cy="16.275" r="160" gradientTransform="matrix(1 0 0 1.1759 0 -118.64)" gradientUnits="userSpaceOnUse">
      <stop stop-color="#c4a000" offset="0"/>
      <stop stop-color="#edd400" stop-opacity="0" offset="1"/>
    </radialGradient>
    <radialGradient id="radialGradient1075" cx="265.28" cy="65.436" r="56" gradientTransform="matrix(1.3372 .35831 -.35834 1.3373 -60.034 -112.8)" gradientUnits="userSpaceOnUse">
      <stop stop-color="#40494c" offset="0"/>
      <stop stop-color="#232829" offset=".57201"/>
      <stop offset="1"/>
    </radialGradient>
    <linearGradient id="linearGradient1095" x1="99.846" x2="431.14" y1="91.301" y2="91.301" gradientTransform="translate(-246.02 -371.38)" gradientUnits="userSpaceOnUse">
      <stop stop-color="#f6d32d" offset="0"/>
      <stop stop-color="#f9f06b" offset="1"/>
    </linearGradient>
  </defs>
  <metadata>
    <rdf:RDF>
      <cc:Work rdf:about="">
        <dc:format>image/svg+xml</dc:format>
        <dc:type rdf:resource="http://purl.org/dc/dcmitype/StillImage"/>
        <dc:creator>
          <cc:Agent>
            <dc:title>GNOME Design Team</dc:title>
          </cc:Agent>
        </dc:creator>
        <dc:source/>
        <cc:license rdf:resource="http://creativecommons.org/licenses/by-sa/4.0/"/>
        <dc:title>Adwaita Icon Template</dc:title>
        <dc:subject>
          <rdf:Bag/>
        </dc:subject>
        <dc:date/>
        <dc:rights>
          <cc:Agent>
            <dc:title/>
          </cc:Agent>
        </dc:rights>
        <dc:publisher>
          <cc:Agent>
            <dc:title/>
          </cc:Agent>
        </dc:publisher>
        <dc:identifier/>
        <dc:relation/>
        <dc:language/>
        <dc:coverage/>
        <dc:description/>
        <dc:contributor>
          <cc:Agent>
            <dc:title/>
          </cc:Agent>
        </dc:contributor>
      </cc:Work>
      <cc:License rdf:about="http://creativecommons.org/licenses/by-sa/4.0/">
        <cc:permits rdf:resource="http://creativecommons.org/ns#Reproduction"/>
        <cc:permits rdf:resource="http://creativecommons.org/ns#Distribution"/>
        <cc:requires rdf:resource="http://creativecommons.org/ns#Notice"/>
        <cc:requires rdf:resource="http://creativecommons.org/ns#Attribution"/>
        <cc:permits rdf:resource="http://creativecommons.org/ns#DerivativeWorks"/>
        <cc:requires rdf:resource="http://creativecommons.org/ns#ShareAlike"/>
      </cc:License>
    </rdf:RDF>
  </metadata>
  <g transform="translate(0,-172)">
    <g>
      <rect x="12" y="184" width="104" height="104" rx="8" ry="8" enable-background="new" fill="#5e5c64" style="paint-order:normal"/>
      <circle cx="64" cy="236" r="60" enable-background="new" fill="#5e5c64" style="paint-order:normal"/>
      <g transform="matrix(.26563 0 0 .26563 -10.395 230.83)" enable-background="new">
        <ellipse cx="280.08" cy="19.474" rx="195.76" ry="195.77" enable-background="new" style="paint-order:normal"/>
        <ellipse cx="280.08" cy="19.475" rx="180.71" ry="180.71" enable-background="new" fill="#2a2a3b" style="paint-order:normal"/>
        <ellipse transform="rotate(90)" cx="19.475" cy="-280.08" rx="165.65" ry="165.65" enable-background="new" fill="url(#linearGradient1095)" style="paint-order:normal"/>
        <circle cx="280" cy="20.006" r="0" enable-background="new" fill="url(#radialGradient1073)" style="paint-order:normal"/>
        <ellipse cx="280.08" cy="19.475" rx="75.294" ry="75.299" enable-background="new" style="paint-order:normal"/>
        <ellipse transform="rotate(-15)" cx="265.49" cy="91.306" rx="60.235" ry="60.239" enable-background="new" fill="url(#radialGradient1075)" style="paint-order:normal"/>
      </g>
      <path d="m24 278a2 2.0365 0 0 1-2 2.0365 2 2.0365 0 0 1-2-2.0365 2 2.0365 0 0 1 2-2.0365 2 2.0365 0 0 1 2 2.0365zm84 0a2 2.0365 0 0 1-2 2.0365 2 2.0365 0 0 1-2-2.0365 2 2.0365 0 0 1 2-2.0365 2 2.0365 0 0 1 2 2.0365zm0-84a2 2.0365 0 0 1-2 2.0365 2 2.0365 0 0 1-2-2.0365 2 2.0365 0 0 1 2-2.0365 2 2.0365 0 0 1 2 2.0365zm-84 0a2 2.0365 0 0 1-2 2.0365 2 2.0365 0 0 1-2-2.0365 2 2.0365 0 0 1 2-2.0365 2 2.0365 0 0 1 2 2.0365z" enable-background="new" style="paint-order:normal"/>
    </g>
  </g>
</svg>
